<svg viewBox="0 0 123 40" fill="none" xmlns="http://www.w3.org/2000/svg">
<path d="M35.9749 8.39128L31.6065 4.02284L26.1012 1.21919L19.9988 0.251465L13.8964 1.21919L8.39109 4.02284L4.02266 8.39128L1.219 13.8966L0.251282 19.999L1.219 26.1013L4.02266 31.6066L8.39109 35.9751L13.8964 38.7812L19.9988 39.7489L26.1012 38.7812L31.6065 35.9751L35.9749 31.6066L38.7811 26.1013L39.7488 19.999L38.7811 13.8966L35.9749 8.39128Z" fill="url(#paint0_linear_416_4913)"/>
<path fill-rule="evenodd" clip-rule="evenodd" d="M19.9988 0L26.1788 0.980034L31.7541 3.81935L36.1781 8.24338L39.02 13.8187L40 19.9988L39.02 26.1788L36.1781 31.7542L31.7542 36.1781L26.1788 39.02L19.9988 40L13.8187 39.02L8.24337 36.1781L3.81935 31.7541L0.980033 26.1788L0 19.9988L0.980033 13.8188L3.81935 8.24343L8.24342 3.81935L13.8188 0.980034L19.9988 0ZM17.1402 15.753L19.9989 19.6876L22.8577 15.753H17.1402ZM16.843 15.9661L19.703 19.9026L15.0766 21.4059L16.843 15.9661ZM14.4625 21.6055L10.4495 17.2441L9.07145 23.3573L14.4625 21.6055ZM8.7334 23.1937L10.0997 17.133L5.43597 18.5986L8.7334 23.1937ZM2.12759 19.6382L4.92539 18.759L4.25333 24.4026L2.12759 19.6382ZM0.751996 20.0705L1.67134 19.7816L1.33829 23.7676L0.751996 20.0705ZM1.65536 25.7671L1.57866 25.2834L1.99935 20.2484L4.10629 24.9706L1.65536 25.7671ZM4.21722 25.3192L5.28862 30.3758L1.98975 26.5496L1.76838 26.1149L4.21722 25.3192ZM4.68237 25.168L8.67371 29.477L8.64084 23.8817L4.68237 25.168ZM9.18364 23.7054L13.8906 27.8427L14.5768 21.9529L9.18364 23.7054ZM13.6709 28.1365L9.00751 24.0375L9.04071 29.6907L13.6709 28.1365ZM8.53146 29.8616L4.67034 25.6932L5.75128 30.7948L8.53146 29.8616ZM5.29817 30.9469L2.68658 27.9179L4.38521 31.2534L5.29817 30.9469ZM14.9367 22.0243L14.2514 27.9066L19.6381 25.4398L14.9367 22.0243ZM19.816 25.7607L14.4256 28.2291L19.816 31.4302V25.7607ZM14.1645 33.415L14.2119 28.5275L19.5552 31.7008L14.1645 33.415ZM14.1309 36.8845L14.1594 33.9497L19.3206 36.3352L14.1309 36.8845ZM14.1169 38.3266L14.1263 37.3608L17.8309 38.9156L14.1169 38.3266ZM19.816 39.2304L19.35 39.1565L14.6755 37.1946L19.816 36.6505V39.2304ZM20.1817 36.1637L25.5112 33.6994L20.1817 32.0017V36.1637ZM20.1817 36.653V39.2304L20.6574 39.1549L25.3223 37.1971L20.1817 36.653ZM22.1764 38.9141L25.8782 38.327L25.8688 37.3644L22.1764 38.9141ZM25.8642 36.8867L25.8358 33.9523L20.677 36.3376L25.8642 36.8867ZM25.8306 33.4173L25.7832 28.5301L20.4424 31.7009L25.8306 33.4173ZM25.5698 28.2315L20.1817 31.4303V25.7608L25.5698 28.2315ZM20.3593 25.4399L25.0608 22.0243L25.7439 27.909L20.3593 25.4399ZM25.4207 21.9526L26.1045 27.8429L30.8144 23.705L25.4207 21.9526ZM30.9546 29.6937L26.3223 28.1384L30.99 24.0375L30.9546 29.6937ZM34.2438 30.798L31.4617 29.8639L35.325 25.6932L34.2438 30.798ZM35.6106 31.2569L34.6966 30.95L37.315 27.913L35.6106 31.2569ZM38.2316 26.1148L38.0133 26.543L34.7065 30.3783L35.7783 25.3178L38.2316 26.1148ZM35.428 24.8194L31.4705 23.5336L34.7316 18.9892L35.428 24.8194ZM30.9261 23.3567L25.5353 21.6053L29.5486 17.2459L30.9261 23.3567ZM29.8986 17.1357L34.5603 18.6006L31.2643 23.1937L29.8986 17.1357ZM35.0727 18.7617L37.8701 19.6407L35.7466 24.4028L35.0727 18.7617ZM38.3263 19.7841L38.659 23.7847L39.2475 20.0736L38.3263 19.7841ZM38.4183 25.3027L38.3446 25.767L35.8938 24.9707L37.9981 20.2517L38.4183 25.3027ZM25.2837 21.3387L23.4888 15.8111L29.2954 16.9809L25.2837 21.3387ZM23.5322 15.4468L26.8656 10.8588L29.3439 16.6176L23.5322 15.4468ZM29.6467 7.03122L27.2005 10.398L32.5122 12.1576L29.6467 7.03122ZM34.4133 9.21794L29.934 6.63579L31.4498 4.5495L31.7863 4.88603L34.4133 9.21794ZM27.2364 10.7952L29.6922 16.5016L32.6042 12.5734L27.2364 10.7952ZM32.8731 5.97286L35.5287 8.62841L34.9538 9.40387L32.8731 5.97286ZM30.1503 7.18265L34.6693 9.78766L32.9231 12.1432L30.1503 7.18265ZM29.9682 16.7434L32.8373 12.8732L34.5747 18.2218L29.9795 16.7778L30.0045 16.7507L29.9682 16.7434ZM39.2085 19.678L38.3176 19.398L38.6404 16.0956L39.2085 19.678ZM38.345 14.233L38.4131 14.6619L38.0246 18.6365L36.7618 14.7479L38.345 14.233ZM35.1051 18.3885L36.507 15.1477L37.8384 19.2474L35.1051 18.3885ZM35.1739 9.72115L37.3753 12.2029L35.7288 8.9726L35.1739 9.72115ZM38.0357 13.4985L38.2327 13.8849L36.6489 14.4L35.384 10.5092L38.0357 13.4985ZM34.8745 10.125L36.2077 14.226L33.1693 12.4253L34.8745 10.125ZM35.3139 25.1669L31.3568 23.8812L31.3217 29.4768L35.3139 25.1669ZM26.1486 28.4969L26.1822 28.5123L26.1779 28.4757L30.7407 30.0076L26.1953 33.3108L26.1486 28.4969ZM26.2424 38.1666L26.2334 37.2365L29.4638 36.5246L26.2424 38.1666ZM31.1508 35.6647L30.7581 35.8648L26.864 36.723L30.1732 34.3191L31.1508 35.6647ZM26.2007 33.8691L29.7145 34.2002L26.2285 36.7325L26.2007 33.8691ZM33.986 31.0972L31.2698 30.1853L30.4979 33.631L33.986 31.0972ZM31.7565 35.1413L31.4473 35.4506L30.469 34.1041L33.7784 31.7001L31.7565 35.1413ZM32.785 34.1128L34.4627 31.2573L35.3445 31.5533L32.785 34.1128ZM19.816 36.1613V32.0016L14.4845 33.697L19.816 36.1613ZM13.8171 28.4732L13.8129 28.5097L13.8465 28.4943L13.7998 33.3084L9.25193 30.0056L13.8171 28.4732ZM4.64999 31.5503L5.52995 31.2549L7.20773 34.108L4.64999 31.5503ZM8.54763 35.4479L8.23771 35.138L6.21485 31.6981L9.52383 34.1018L8.54763 35.4479ZM8.72474 30.1826L9.4952 33.6289L6.00674 31.0949L8.72474 30.1826ZM13.7667 36.7299L13.7944 33.8667L10.2787 34.1978L13.7667 36.7299ZM9.23239 35.8612L8.84346 35.663L9.81984 34.3166L13.1309 36.7204L9.23239 35.8612ZM10.5268 36.521L13.7618 37.2339L13.7527 38.1653L10.5268 36.521ZM4.57203 24.8193L8.52745 23.534L5.26628 18.9894L4.57203 24.8193ZM14.7139 21.3385L16.5088 15.811L10.7022 16.9786L14.7139 21.3385ZM12.7959 10.396L7.48541 12.1574L10.3503 7.03001L12.7959 10.396ZM13.1313 10.8576L10.651 16.6158L16.4655 15.4466L13.1313 10.8576ZM10.3039 16.4972L12.7609 10.793L7.39474 12.5728L10.3039 16.4972ZM7.0752 12.1418L5.32822 9.78521L9.84749 7.18006L7.0752 12.1418ZM5.04373 9.40144L4.46989 8.62736L7.12071 5.97653L5.04373 9.40144ZM8.20754 4.88971L5.58424 9.21547L10.0625 6.63395L8.54791 4.54933L8.20754 4.88971ZM10.0293 16.7408L7.16105 12.8717L5.42404 18.2189L10.0181 16.7752L9.99315 16.7481L10.0293 16.7408ZM4.26956 8.97127L4.82378 9.71888L2.62852 12.1936L4.26956 8.97127ZM1.76801 13.8834L1.96949 13.4877L4.61383 10.5067L3.34897 14.3975L1.76801 13.8834ZM5.12321 10.1228L3.78999 14.2239L6.82957 12.4246L5.12321 10.1228ZM1.65524 14.2313L3.23595 14.7454L1.97312 18.634L1.58567 14.67L1.65524 14.2313ZM1.35831 16.1037L1.68007 19.3955L0.792038 19.6745L1.35831 16.1037ZM2.15929 19.2449L3.49067 15.1451L4.89181 18.3862L2.15929 19.2449ZM13.0928 10.1824L10.6474 6.81672L16.4076 5.67562L13.0928 10.1824ZM16.7606 15.2306L13.428 10.6437L19.6683 10.065L16.7606 15.2306ZM16.831 5.71724L19.6655 9.69798L13.4813 10.2715L16.831 5.71724ZM14.8196 2.89232L16.5201 5.2805L10.9457 6.38478L14.8196 2.89232ZM13.9829 1.71731L14.5421 2.50266L10.6416 3.41891L13.9829 1.71731ZM14.1996 2.95881L9.27224 4.11628L8.84386 4.33444L10.3596 6.42067L14.1996 2.95881ZM20.3293 10.065L23.2371 15.2307L26.57 10.6435L20.3293 10.065ZM29.6382 6.42062L31.1539 4.33455L30.7248 4.11603L25.8004 2.9588L29.6382 6.42062ZM29.3549 3.41841L26.0146 1.71731L25.4558 2.50212L29.3549 3.41841ZM25.179 2.89086L23.4775 5.28045L29.0525 6.38485L25.179 2.89086ZM23.1667 5.71698L20.332 9.69794L26.5189 10.2715L23.1667 5.71698ZM29.3504 6.81672L26.9062 10.1807L23.5904 5.67566L29.3504 6.81672ZM22.9055 15.3872L19.9988 10.2235L17.0921 15.3872H22.9055ZM20.0169 9.50999L19.9988 9.47789L19.9807 9.51008L17.1878 5.58764H22.8098L20.0169 9.50999ZM25.6257 1.63295L25.0861 2.3908L22.0501 1.06592L25.6257 1.63295ZM20.1818 0.769652L20.6137 0.838135L24.2733 2.43514H20.1818V0.769652ZM23.133 5.13376L20.4834 2.80088H24.7941L23.133 5.13376ZM15.2035 2.80088L16.8647 5.13396L19.5145 2.80088H15.2035ZM14.9121 2.39169L14.3718 1.63295L17.9494 1.06562L14.9121 2.39169ZM19.3848 0.837982L15.7266 2.43514H19.8161V0.769591L19.3848 0.837982ZM23.1547 15.9664L20.2948 19.9026L24.9209 21.4056L23.1547 15.9664ZM24.8103 21.7542L20.1817 20.2504V25.1169L24.8103 21.7542ZM19.816 25.117V20.2504L15.1875 21.7544L19.816 25.117ZM17.3183 5.2219L19.999 2.86167L22.6796 5.2219H17.3183ZM6.77277 12.8832L3.69812 14.7033L5.11606 17.9832L6.77277 12.8832ZM9.14338 30.3788L9.92251 33.8639L13.481 33.5288L9.14338 30.3788ZM26.514 33.5313L30.0703 33.8664L30.8516 30.3792L26.514 33.5313ZM33.2252 12.8836L36.2997 14.7057L34.8818 17.9834L33.2252 12.8836Z" fill="white"/>
<path d="M51.755 13.9398L53.1185 16.2508L54.4821 13.9398L54.7958 16.6669H55.5768L54.9622 11.9616L53.1185 15.0024L51.2812 11.9616L50.6667 16.6669H51.4477L51.755 13.9398Z" fill="white"/>
<path d="M63.187 15.5146H65.5557L65.4084 14.8744H63.3279L63.187 15.5146ZM64.3586 13.4532L65.0691 15.1177L65.0883 15.3033L65.6965 16.6669H66.5479L64.3586 11.936L62.1692 16.6669H63.0206L63.6416 15.2649L63.6544 15.0985L64.3586 13.4532Z" fill="white"/>
<path d="M74.3287 14.5287L75.7563 16.6669H76.6653L75.1481 14.5287H74.3287ZM73.4069 12.1857V16.6669H74.1623V12.1857H73.4069ZM73.855 12.8387H74.7576C74.9283 12.8387 75.0777 12.8685 75.2057 12.9283C75.338 12.988 75.4405 13.0734 75.513 13.1844C75.5856 13.2953 75.6218 13.4319 75.6218 13.5941C75.6218 13.752 75.5856 13.8885 75.513 14.0038C75.4405 14.1147 75.338 14.2001 75.2057 14.2598C75.0777 14.3196 74.9283 14.3495 74.7576 14.3495H73.855V14.9704H74.7896C75.114 14.9704 75.3956 14.9128 75.6346 14.7976C75.8779 14.6824 76.0657 14.5202 76.198 14.3111C76.3303 14.1019 76.3964 13.8565 76.3964 13.5749C76.3964 13.2932 76.3303 13.0499 76.198 12.8451C76.0657 12.636 75.8779 12.4738 75.6346 12.3585C75.3956 12.2433 75.114 12.1857 74.7896 12.1857H73.855V12.8387Z" fill="white"/>
<path d="M83.8462 15.2265L83.2829 15.617C83.381 15.8218 83.5133 16.0118 83.6798 16.1867C83.8462 16.3617 84.0404 16.5026 84.2623 16.6093C84.4885 16.7117 84.7339 16.7629 84.9985 16.7629C85.1906 16.7629 85.3741 16.7309 85.5491 16.6669C85.7283 16.6071 85.8884 16.5218 86.0292 16.4108C86.17 16.2956 86.281 16.1547 86.3621 15.9883C86.4432 15.8218 86.4837 15.6341 86.4837 15.4249C86.4837 15.2286 86.4496 15.0579 86.3813 14.9128C86.3173 14.7677 86.2298 14.6418 86.1188 14.5351C86.0079 14.4241 85.8841 14.3324 85.7475 14.2598C85.6152 14.1873 85.4829 14.1275 85.3506 14.0806C85.1116 13.9952 84.9174 13.912 84.7681 13.8309C84.6187 13.7498 84.5077 13.6645 84.4352 13.5749C84.3669 13.481 84.3328 13.3764 84.3328 13.2612C84.3328 13.1331 84.3818 13.0222 84.48 12.9283C84.5782 12.8301 84.7318 12.7811 84.9409 12.7811C85.0903 12.7811 85.2205 12.8109 85.3314 12.8707C85.4466 12.9262 85.5469 13.003 85.6323 13.1011C85.7177 13.195 85.7881 13.2975 85.8436 13.4084L86.4581 13.0627C86.3813 12.9048 86.2746 12.7533 86.138 12.6082C86.0057 12.4631 85.8414 12.3436 85.6451 12.2497C85.4488 12.1558 85.2183 12.1089 84.9537 12.1089C84.6848 12.1089 84.4437 12.1601 84.2303 12.2625C84.0212 12.3607 83.8548 12.5015 83.731 12.685C83.6072 12.8643 83.5454 13.0734 83.5454 13.3124C83.5454 13.5215 83.5859 13.7008 83.667 13.8501C83.7481 13.9952 83.8505 14.119 83.9743 14.2214C84.098 14.3196 84.2282 14.4028 84.3648 14.4711C84.5013 14.5351 84.6251 14.5863 84.7361 14.6247C84.9238 14.693 85.0882 14.7634 85.229 14.836C85.3741 14.9043 85.4872 14.9896 85.5683 15.0921C85.6494 15.1902 85.6899 15.3225 85.6899 15.489C85.6899 15.6639 85.6259 15.8069 85.4979 15.9179C85.3698 16.0288 85.2034 16.0843 84.9985 16.0843C84.8278 16.0843 84.6742 16.0502 84.5376 15.9819C84.401 15.9093 84.2751 15.809 84.1599 15.681C84.0489 15.5487 83.9444 15.3972 83.8462 15.2265Z" fill="white"/>
<path d="M50.9228 21.8524V26.3335H51.6782V21.8524H50.9228ZM51.3709 22.5181H52.2735C52.5338 22.5181 52.743 22.58 52.9009 22.7038C53.0588 22.8233 53.1377 23.0025 53.1377 23.2415C53.1377 23.4805 53.0588 23.6619 52.9009 23.7857C52.743 23.9094 52.5338 23.9713 52.2735 23.9713H51.3709V24.6371H52.2735C52.5979 24.6371 52.8795 24.5816 53.1185 24.4707C53.3618 24.3554 53.5496 24.1932 53.6819 23.9841C53.8142 23.775 53.8803 23.5275 53.8803 23.2415C53.8803 22.9556 53.8142 22.7102 53.6819 22.5053C53.5496 22.2962 53.3618 22.1362 53.1185 22.0252C52.8795 21.91 52.5979 21.8524 52.2735 21.8524H51.3709V22.5181Z" fill="white"/>
<path d="M60.987 24.1954L62.4145 26.3335H63.3236L61.8064 24.1954H60.987ZM60.0651 21.8524V26.3335H60.8205V21.8524H60.0651ZM60.5133 22.5053H61.4159C61.5866 22.5053 61.736 22.5352 61.864 22.595C61.9963 22.6547 62.0987 22.7401 62.1713 22.851C62.2438 22.962 62.2801 23.0986 62.2801 23.2607C62.2801 23.4186 62.2438 23.5552 62.1713 23.6704C62.0987 23.7814 61.9963 23.8668 61.864 23.9265C61.736 23.9863 61.5866 24.0161 61.4159 24.0161H60.5133V24.6371H61.4479C61.7722 24.6371 62.0539 24.5795 62.2929 24.4642C62.5362 24.349 62.724 24.1868 62.8563 23.9777C62.9886 23.7686 63.0547 23.5232 63.0547 23.2415C63.0547 22.9599 62.9886 22.7166 62.8563 22.5117C62.724 22.3026 62.5362 22.1404 62.2929 22.0252C62.0539 21.91 61.7722 21.8524 61.4479 21.8524H60.5133V22.5053Z" fill="white"/>
<path d="M69.8579 24.0929C69.8579 23.7857 69.922 23.5125 70.05 23.2735C70.1823 23.0303 70.3637 22.8404 70.5941 22.7038C70.8246 22.5672 71.0871 22.4989 71.3815 22.4989C71.6845 22.4989 71.9491 22.5672 72.1753 22.7038C72.4058 22.8404 72.585 23.0303 72.7131 23.2735C72.8411 23.5125 72.9051 23.7857 72.9051 24.0929C72.9051 24.4002 72.839 24.6755 72.7067 24.9188C72.5786 25.1578 72.3994 25.3455 72.1689 25.4821C71.9427 25.6187 71.6803 25.687 71.3815 25.687C71.0871 25.687 70.8246 25.6187 70.5941 25.4821C70.3637 25.3455 70.1823 25.1578 70.05 24.9188C69.922 24.6755 69.8579 24.4002 69.8579 24.0929ZM69.0577 24.0929C69.0577 24.4258 69.1153 24.7353 69.2306 25.0212C69.3458 25.3071 69.5058 25.5547 69.7107 25.7638C69.9198 25.9729 70.1674 26.1372 70.4533 26.2567C70.7392 26.3719 71.0486 26.4296 71.3815 26.4296C71.7187 26.4296 72.0281 26.3719 72.3098 26.2567C72.5957 26.1372 72.8432 25.9729 73.0524 25.7638C73.2615 25.5547 73.4237 25.3071 73.5389 25.0212C73.6541 24.7353 73.7117 24.4258 73.7117 24.0929C73.7117 23.7558 73.6541 23.4464 73.5389 23.1647C73.4237 22.883 73.2594 22.6398 73.046 22.4349C72.8368 22.2258 72.5914 22.0636 72.3098 21.9484C72.0281 21.8332 71.7187 21.7755 71.3815 21.7755C71.0529 21.7755 70.7456 21.8332 70.4597 21.9484C70.178 22.0636 69.9305 22.2258 69.7171 22.4349C69.508 22.6398 69.3458 22.883 69.2306 23.1647C69.1153 23.4464 69.0577 23.7558 69.0577 24.0929Z" fill="white"/>
<path d="M79.2459 22.5501H80.4238V26.3335H81.1856V22.5501H82.3699V21.8524H79.2459V22.5501Z" fill="white"/>
<path d="M88.5866 24.0929C88.5866 23.7857 88.6506 23.5125 88.7786 23.2735C88.9109 23.0303 89.0923 22.8404 89.3228 22.7038C89.5532 22.5672 89.8157 22.4989 90.1102 22.4989C90.4132 22.4989 90.6778 22.5672 90.904 22.7038C91.1344 22.8404 91.3137 23.0303 91.4417 23.2735C91.5697 23.5125 91.6338 23.7857 91.6338 24.0929C91.6338 24.4002 91.5676 24.6755 91.4353 24.9188C91.3073 25.1578 91.128 25.3455 90.8976 25.4821C90.6714 25.6187 90.4089 25.687 90.1102 25.687C89.8157 25.687 89.5532 25.6187 89.3228 25.4821C89.0923 25.3455 88.9109 25.1578 88.7786 24.9188C88.6506 24.6755 88.5866 24.4002 88.5866 24.0929ZM87.7864 24.0929C87.7864 24.4258 87.844 24.7353 87.9592 25.0212C88.0744 25.3071 88.2345 25.5547 88.4393 25.7638C88.6484 25.9729 88.896 26.1372 89.1819 26.2567C89.4679 26.3719 89.7773 26.4296 90.1102 26.4296C90.4473 26.4296 90.7567 26.3719 91.0384 26.2567C91.3243 26.1372 91.5719 25.9729 91.781 25.7638C91.9901 25.5547 92.1523 25.3071 92.2675 25.0212C92.3828 24.7353 92.4404 24.4258 92.4404 24.0929C92.4404 23.7558 92.3828 23.4464 92.2675 23.1647C92.1523 22.883 91.988 22.6398 91.7746 22.4349C91.5655 22.2258 91.3201 22.0636 91.0384 21.9484C90.7567 21.8332 90.4473 21.7755 90.1102 21.7755C89.7815 21.7755 89.4743 21.8332 89.1883 21.9484C88.9067 22.0636 88.6591 22.2258 88.4457 22.4349C88.2366 22.6398 88.0744 22.883 87.9592 23.1647C87.844 23.4464 87.7864 23.7558 87.7864 24.0929Z" fill="white"/>
<path d="M99.1734 24.0929C99.1734 23.7729 99.2438 23.4955 99.3846 23.2607C99.5297 23.0217 99.7175 22.8382 99.948 22.7102C100.183 22.5779 100.437 22.5117 100.71 22.5117C100.923 22.5117 101.115 22.5395 101.286 22.595C101.457 22.6504 101.61 22.7273 101.747 22.8254C101.888 22.9193 102.009 23.026 102.112 23.1455V22.2493C101.924 22.0956 101.721 21.9783 101.504 21.8972C101.286 21.8161 101.013 21.7755 100.684 21.7755C100.356 21.7755 100.048 21.831 99.7623 21.942C99.4807 22.053 99.2353 22.213 99.0261 22.4221C98.817 22.6312 98.6527 22.8788 98.5332 23.1647C98.418 23.4464 98.3604 23.7558 98.3604 24.0929C98.3604 24.4301 98.418 24.7417 98.5332 25.0276C98.6527 25.3093 98.817 25.5547 99.0261 25.7638C99.2353 25.9729 99.4807 26.1329 99.7623 26.2439C100.048 26.3549 100.356 26.4104 100.684 26.4104C101.013 26.4104 101.286 26.3698 101.504 26.2887C101.721 26.2076 101.924 26.0903 102.112 25.9366V25.0404C102.009 25.1599 101.888 25.2687 101.747 25.3669C101.61 25.4608 101.457 25.5355 101.286 25.5909C101.115 25.6464 100.923 25.6742 100.71 25.6742C100.437 25.6742 100.183 25.6101 99.948 25.4821C99.7175 25.3498 99.5297 25.1642 99.3846 24.9252C99.2438 24.6862 99.1734 24.4088 99.1734 24.0929Z" fill="white"/>
<path d="M109.028 24.0929C109.028 23.7857 109.092 23.5125 109.22 23.2735C109.352 23.0303 109.534 22.8404 109.764 22.7038C109.995 22.5672 110.257 22.4989 110.552 22.4989C110.855 22.4989 111.119 22.5672 111.346 22.7038C111.576 22.8404 111.755 23.0303 111.883 23.2735C112.011 23.5125 112.075 23.7857 112.075 24.0929C112.075 24.4002 112.009 24.6755 111.877 24.9188C111.749 25.1578 111.57 25.3455 111.339 25.4821C111.113 25.6187 110.85 25.687 110.552 25.687C110.257 25.687 109.995 25.6187 109.764 25.4821C109.534 25.3455 109.352 25.1578 109.22 24.9188C109.092 24.6755 109.028 24.4002 109.028 24.0929ZM108.228 24.0929C108.228 24.4258 108.286 24.7353 108.401 25.0212C108.516 25.3071 108.676 25.5547 108.881 25.7638C109.09 25.9729 109.338 26.1372 109.623 26.2567C109.909 26.3719 110.219 26.4296 110.552 26.4296C110.889 26.4296 111.198 26.3719 111.48 26.2567C111.766 26.1372 112.013 25.9729 112.223 25.7638C112.432 25.5547 112.594 25.3071 112.709 25.0212C112.824 24.7353 112.882 24.4258 112.882 24.0929C112.882 23.7558 112.824 23.4464 112.709 23.1647C112.594 22.883 112.43 22.6398 112.216 22.4349C112.007 22.2258 111.762 22.0636 111.48 21.9484C111.198 21.8332 110.889 21.7755 110.552 21.7755C110.223 21.7755 109.916 21.8332 109.63 21.9484C109.348 22.0636 109.101 22.2258 108.887 22.4349C108.678 22.6398 108.516 22.883 108.401 23.1647C108.286 23.4464 108.228 23.7558 108.228 24.0929Z" fill="white"/>
<path d="M119.058 21.8524V26.3335H121.593V25.655H119.813V21.8524H119.058Z" fill="white"/>
<defs>
<linearGradient id="paint0_linear_416_4913" x1="7.41795" y1="5.25146" x2="30.7144" y2="33.877" gradientUnits="userSpaceOnUse">
<stop stop-color="#EF4136"/>
<stop offset="0.318022" stop-color="#DF5153"/>
<stop offset="0.636522" stop-color="#AC0B1B"/>
<stop offset="0.891735" stop-color="#8F0411"/>
<stop offset="1" stop-color="#AC0B1B"/>
</linearGradient>
</defs>
</svg>
